# 3ds Max Wavefront OBJ Exporter v0.97b - (c)2007 guruware
# File Created: 03.09.2019 18:25:42

mtllib dagger.mtl

#
# object Box001
#

v  -6.1244 21.8989 4.3253
v  -8.6547 21.9336 0.2513
v  -6.0906 21.9120 -4.5576
v  -2.8978 21.9024 -6.1062
v  -2.9700 21.9116 6.5429
v  2.2688 21.9034 -6.1061
v  2.1944 21.8983 6.5466
v  6.0243 21.9177 -4.1978
v  7.7485 21.9163 0.2015
v  6.1029 21.9242 4.9602
v  -5.5081 55.7664 3.7370
v  -2.7063 55.7664 5.7108
v  -2.2906 64.4435 6.4438
v  2.0338 55.7664 5.7108
v  1.4712 64.4435 6.4438
v  0.5903 64.4435 6.4438
v  -1.4097 64.4435 6.4438
v  5.4563 55.7664 4.3451
v  6.8685 55.7664 0.2205
v  5.3716 55.7664 -3.6039
v  13.9277 61.2993 -1.1504
v  13.9588 61.2997 1.7298
v  2.0698 55.7664 -5.2699
v  1.4712 64.4435 -5.5108
v  -2.7063 55.7664 -5.2699
v  -2.2906 64.4435 -5.5108
v  -1.4097 64.4435 -5.5108
v  0.5903 64.4435 -5.5108
v  -5.4882 55.7664 -3.9251
v  -7.7489 55.7664 0.2205
v  -15.5330 61.4486 1.4495
v  -15.5754 61.4821 -1.1789
v  13.1572 64.4435 2.4169
v  13.0627 64.4435 -1.6973
v  9.5127 64.4435 0.2439
v  -14.8163 64.4435 -1.6577
v  -14.9074 64.4435 2.3741
v  -10.1396 64.4435 0.2658
v  -2.2906 102.3823 -4.7496
v  -12.8345 102.3823 0.2417
v  -0.4097 126.9238 0.2439
v  -2.2906 102.3823 5.9287
v  -1.4097 102.3823 5.9287
v  0.5903 102.3823 5.9287
v  1.4712 102.3823 5.9287
v  12.5729 102.3823 0.2439
v  1.4712 102.3823 -4.7496
v  0.5903 102.3823 -4.7496
v  -1.4097 102.3823 -4.7496
v  -2.7063 44.2066 -5.2699
v  -2.7063 38.2050 -5.2699
v  -5.4882 38.2050 -3.9251
v  -5.4882 44.2066 -3.9251
v  2.0698 44.2066 -5.2699
v  2.0698 38.2050 -5.2699
v  5.3716 44.2066 -3.6039
v  5.3716 38.2050 -3.6039
v  6.8685 44.2066 0.2205
v  6.8685 38.2050 0.2205
v  2.0338 44.2066 5.7108
v  2.0338 38.2050 5.7108
v  5.4563 38.2050 4.3451
v  5.4563 44.2066 4.3451
v  -2.7063 44.2066 5.7108
v  -2.7063 38.2050 5.7108
v  -5.5081 44.2066 3.7370
v  -5.5081 38.2050 3.7370
v  -7.7489 44.2066 0.2205
v  -7.7489 38.2050 0.2205
v  -1.4097 64.4435 5.4438
v  0.5903 64.4435 5.4438
v  0.5903 102.3823 4.9287
v  -1.4097 102.3823 4.9287
v  0.5903 64.4435 -4.9173
v  -1.4097 64.4435 -4.9173
v  -1.4097 102.3823 -3.7496
v  0.5903 102.3823 -3.7496
v  -2.9613 25.3210 -6.3833
v  -6.2759 25.3210 -4.7522
v  -2.7063 31.9572 -5.2699
v  -2.7063 27.5814 -5.2699
v  -5.4882 27.5814 -3.9251
v  -5.4882 31.9572 -3.9251
v  -2.5279 37.1322 -4.4908
v  -2.5279 33.0299 -4.4908
v  -4.9370 33.0299 -3.3462
v  -4.9370 37.1322 -3.3462
v  -5.4882 51.2021 -3.9251
v  -2.7063 51.2021 -5.2699
v  -4.9370 45.4615 -3.3462
v  -4.9370 49.9472 -3.3462
v  -2.5279 49.9472 -4.4908
v  -2.5279 45.4615 -4.4908
v  2.3342 25.3210 -6.3811
v  2.0698 31.9572 -5.2699
v  2.0698 27.5814 -5.2699
v  1.8847 37.1322 -4.4923
v  1.8847 33.0299 -4.4923
v  2.0698 51.2021 -5.2699
v  1.8847 49.9472 -4.4923
v  1.8847 45.4615 -4.4923
v  6.2164 25.3210 -4.3726
v  5.3716 31.9572 -3.6039
v  5.3716 27.5814 -3.6039
v  4.7804 37.1322 -3.0659
v  4.7804 33.0299 -3.0659
v  5.3716 51.2021 -3.6039
v  4.7804 49.9472 -3.0659
v  4.7804 45.4615 -3.0659
v  8.0104 25.3210 0.1958
v  6.8685 31.9572 0.2205
v  6.8685 27.5814 0.2205
v  6.0693 37.1322 0.2377
v  6.0693 33.0299 0.2377
v  6.8685 51.2021 0.2205
v  6.0693 49.9472 0.2377
v  6.0693 45.4615 0.2377
v  2.2493 25.3210 6.8325
v  6.2838 25.3210 5.1324
v  2.0338 31.9572 5.7108
v  2.0338 27.5814 5.7108
v  5.4563 27.5814 4.3451
v  5.4563 31.9572 4.3451
v  1.8830 37.1322 4.9259
v  1.8830 33.0299 4.9259
v  4.8772 33.0299 3.7942
v  4.8772 37.1322 3.7942
v  5.4563 51.2021 4.3451
v  2.0338 51.2021 5.7108
v  -3.0513 25.3210 6.7997
v  -2.7063 31.9572 5.7108
v  -2.7063 27.5814 5.7108
v  -2.4649 37.1322 4.9489
v  -2.4649 33.0299 4.9489
v  -2.7063 51.2021 5.7108
v  1.8830 45.4615 4.9259
v  1.8830 49.9472 4.9259
v  -2.4649 49.9472 4.9489
v  -2.4649 45.4615 4.9489
v  -6.3343 25.3210 4.5257
v  -5.5081 31.9572 3.7370
v  -5.5081 27.5814 3.7370
v  -4.9299 37.1322 3.1851
v  -4.9299 33.0299 3.1851
v  -5.5081 51.2021 3.7370
v  -4.9299 49.9472 3.1851
v  -4.9299 45.4615 3.1851
v  -8.8905 25.3210 0.2593
v  -7.7489 31.9572 0.2205
v  -7.7489 27.5814 0.2205
v  -6.9501 37.1322 0.1933
v  -6.9501 33.0299 0.1933
v  -7.7489 51.2021 0.2205
v  -6.9501 49.9472 0.1933
v  -6.9501 45.4615 0.1933
v  4.7739 45.4615 3.7494
v  4.7739 49.9472 3.7494
# 157 vertices

vn -0.5164 -0.7050 0.4861
vn -0.7749 -0.6316 0.0248
vn -0.5139 -0.6735 -0.5313
vn -0.1625 -0.6908 -0.7045
vn -0.2232 -0.6735 0.7047
vn 0.1698 -0.6886 -0.7050
vn 0.1377 -0.6982 0.7025
vn 0.5558 -0.6615 -0.5035
vn 0.7454 -0.6665 -0.0148
vn 0.5530 -0.6486 0.5230
vn -0.4756 -0.7534 0.4541
vn -0.3086 -0.0327 0.9506
vn 1.0000 0.0000 -0.0000
vn -0.4156 0.6923 0.5899
vn -0.0976 0.5742 0.8129
vn -0.2767 -0.9569 0.0877
vn 0.1933 -0.0351 0.9805
vn 0.0000 -0.0516 0.9987
vn -0.3037 0.2589 0.9169
vn 0.3037 0.2590 0.9169
vn 0.0000 0.0136 0.9999
vn 0.4207 -0.8142 0.4002
vn 0.3210 -0.9346 0.1530
vn 0.0952 0.6020 0.7928
vn 0.7705 0.6372 -0.0166
vn 0.4467 -0.7970 -0.4065
vn 0.2358 -0.8698 -0.4334
vn 0.8370 -0.3101 -0.4508
vn 0.8480 -0.3236 0.4198
vn 0.2368 -0.0051 -0.9715
vn 0.0911 0.6106 -0.7867
vn -0.2269 -0.0080 -0.9739
vn 0.0000 0.0201 -0.9998
vn 0.2990 0.2922 -0.9084
vn -0.2990 0.2922 -0.9084
vn 0.0000 -0.0118 -0.9999
vn -0.4291 -0.7828 -0.4507
vn -0.2838 -0.9431 -0.1733
vn -0.0896 0.6230 -0.7771
vn -0.3084 0.7056 -0.6379
vn -0.7930 0.6086 0.0270
vn -0.8194 -0.3911 0.4190
vn -0.8292 -0.3349 -0.4475
vn 0.5903 0.6104 0.5281
vn 0.5693 0.6268 -0.5320
vn 0.5376 0.3831 -0.7512
vn 0.3235 0.8312 -0.4521
vn 0.3430 0.8273 0.4449
vn 0.5607 0.3959 0.7272
vn -0.5694 0.6233 -0.5360
vn -0.6002 0.5705 0.5607
vn -0.3318 -0.8440 0.4215
vn -0.8069 -0.5906 -0.0133
vn -0.3152 -0.8468 -0.4283
vn -0.2143 0.8655 -0.4528
vn -0.6573 0.1150 -0.7448
vn -0.0057 0.9999 -0.0104
vn -0.4553 0.2829 0.8442
vn -0.2417 0.8607 0.4482
vn 0.3190 -0.1692 0.9325
vn -0.3190 -0.1693 0.9325
vn 0.0000 0.1558 0.9878
vn 0.4380 -0.2768 0.8553
vn 0.9842 0.1757 -0.0222
vn 0.3980 -0.2420 -0.8849
vn 0.0000 0.1401 -0.9901
vn -0.3183 -0.1827 -0.9302
vn 0.3183 -0.1827 -0.9302
vn -0.2150 0.2697 -0.9387
vn -0.2128 -0.3021 -0.9292
vn -0.6583 -0.2978 -0.6913
vn -0.6647 0.2662 -0.6981
vn 0.2230 0.2693 -0.9369
vn 0.2207 -0.3017 -0.9275
vn 0.7134 0.2640 -0.6491
vn 0.7067 -0.2952 -0.6430
vn 0.9641 0.2646 -0.0208
vn 0.9550 -0.2958 -0.0206
vn 0.1816 0.2712 0.9452
vn 0.1798 -0.3040 0.9356
vn 0.6929 -0.2922 0.6592
vn 0.6958 0.2858 0.6590
vn -0.2912 0.2663 0.9189
vn -0.2883 -0.2980 0.9100
vn -0.6963 0.2709 0.6647
vn -0.6891 -0.3037 0.6579
vn -0.9656 0.2581 0.0329
vn -0.9571 -0.2879 0.0326
vn 0.5780 0.5809 0.5731
vn -0.5781 0.5809 0.5730
vn -0.5766 -0.5737 0.5817
vn 0.5767 -0.5738 0.5815
vn -0.5790 0.5853 -0.5676
vn 0.5790 0.5853 -0.5676
vn 0.5757 -0.5692 -0.5870
vn -0.5757 -0.5692 -0.5870
vn -0.2225 0.1843 -0.9574
vn -0.6864 0.1839 -0.7036
vn -0.2128 0.3021 -0.9292
vn -0.2167 0.2396 -0.9464
vn -0.6690 0.2427 -0.7026
vn -0.6583 0.2978 -0.6913
vn -0.2078 -0.3287 -0.9213
vn -0.2078 0.3287 -0.9213
vn -0.6409 0.3343 -0.6910
vn -0.6409 -0.3343 -0.6910
vn -0.6647 -0.2662 -0.6981
vn -0.2150 -0.2697 -0.9387
vn -0.6498 0.2953 -0.7004
vn -0.6497 -0.2953 -0.7005
vn -0.2105 -0.2909 -0.9333
vn -0.2105 0.2909 -0.9333
vn 0.2324 0.1842 -0.9550
vn 0.2207 0.3017 -0.9275
vn 0.2248 0.2399 -0.9444
vn 0.2138 -0.3292 -0.9197
vn 0.2138 0.3292 -0.9197
vn 0.2230 -0.2693 -0.9369
vn 0.2167 -0.2913 -0.9318
vn 0.2167 0.2913 -0.9318
vn 0.7298 0.1840 -0.6584
vn 0.7067 0.2952 -0.6430
vn 0.7171 0.2447 -0.6526
vn 0.6930 -0.3388 -0.6364
vn 0.6930 0.3388 -0.6364
vn 0.7134 -0.2640 -0.6491
vn 0.7029 -0.2988 -0.6455
vn 0.7029 0.2988 -0.6455
vn 0.9828 0.1838 -0.0187
vn 0.9550 0.2958 -0.0206
vn 0.9695 0.2442 -0.0209
vn 0.9411 -0.3372 -0.0230
vn 0.9411 0.3372 -0.0230
vn 0.9641 -0.2646 -0.0208
vn 0.9544 -0.2984 -0.0080
vn 0.9544 0.2984 -0.0080
vn 0.1915 0.1841 0.9641
vn 0.7162 0.1839 0.6733
vn 0.1798 0.3040 0.9356
vn 0.1833 0.2384 0.9537
vn 0.7020 0.2470 0.6679
vn 0.6929 0.2922 0.6592
vn 0.1721 -0.3259 0.9296
vn 0.1721 0.3259 0.9296
vn 0.6761 0.3438 0.6517
vn 0.6761 -0.3438 0.6517
vn 0.6958 -0.2858 0.6590
vn 0.1816 -0.2712 0.9452
vn -0.2961 0.1843 0.9372
vn -0.2883 0.2980 0.9100
vn -0.2931 0.2425 0.9248
vn -0.2856 -0.3349 0.8979
vn -0.2856 0.3349 0.8979
vn -0.2912 -0.2663 0.9189
vn 0.1865 0.2893 0.9389
vn 0.1865 -0.2893 0.9389
vn -0.2895 -0.2957 0.9103
vn -0.2895 0.2958 0.9103
vn -0.7174 0.1840 0.6720
vn -0.6891 0.3037 0.6579
vn -0.7024 0.2385 0.6706
vn -0.6773 -0.3259 0.6596
vn -0.6773 0.3259 0.6596
vn -0.6963 -0.2709 0.6647
vn -0.6859 -0.2886 0.6680
vn -0.6859 0.2886 0.6680
vn -0.9826 0.1835 0.0292
vn -0.9571 0.2879 0.0326
vn -0.9675 0.2508 0.0329
vn -0.9354 -0.3517 0.0365
vn -0.9354 0.3517 0.0365
vn -0.9656 -0.2581 0.0329
vn -0.9504 -0.3089 0.0370
vn -0.9504 0.3089 0.0371
vn 0.6745 0.3330 0.6589
vn 0.6745 -0.3330 0.6589
# 176 vertex normals

vt 0.3917 0.9216 0.0000
vt 0.3532 0.9456 0.0000
vt 0.3077 0.9213 0.0000
vt 0.2930 0.8911 0.0000
vt 0.4127 0.8918 0.0000
vt 0.2930 0.8422 0.0000
vt 0.4127 0.8429 0.0000
vt 0.3111 0.8067 0.0000
vt 0.3527 0.7904 0.0000
vt 0.3977 0.8060 0.0000
vt 0.8803 0.6600 0.0000
vt 0.8538 0.6600 0.0000
vt 0.8499 0.5779 0.0000
vt 0.8089 0.6600 0.0000
vt 0.8143 0.5779 0.0000
vt 0.8226 0.5779 0.0000
vt 0.8415 0.5779 0.0000
vt 0.7766 0.6600 0.0000
vt 0.6767 0.8654 0.0000
vt 0.7158 0.8788 0.0000
vt 0.7520 0.8646 0.0000
vt 0.7287 0.9456 0.0000
vt 0.7015 0.9459 0.0000
vt 0.9080 0.2244 0.0000
vt 0.8767 0.2244 0.0000
vt 0.8711 0.1423 0.0000
vt 0.8315 0.2244 0.0000
vt 0.8355 0.1423 0.0000
vt 0.8438 0.1423 0.0000
vt 0.8627 0.1423 0.0000
vt 0.8052 0.2244 0.0000
vt 0.7353 0.4489 0.0000
vt 0.6961 0.4275 0.0000
vt 0.6628 0.4487 0.0000
vt 0.6844 0.3539 0.0000
vt 0.7093 0.3535 0.0000
vt 0.5752 0.8365 0.0000
vt 0.5371 0.9470 0.0000
vt 0.4982 0.9461 0.0000
vt 0.4604 0.8365 0.0000
vt 0.5166 0.9125 0.0000
vt 0.6720 0.2398 0.0000
vt 0.6338 0.3584 0.0000
vt 0.5957 0.3592 0.0000
vt 0.5572 0.2398 0.0000
vt 0.6156 0.3141 0.0000
vt 0.3745 0.2374 0.0000
vt 0.2748 0.2374 0.0000
vt 0.3923 0.0052 0.0000
vt 0.2545 0.2359 0.0000
vt 0.1548 0.2359 0.0000
vt 0.1548 0.2374 0.0000
vt 0.1370 0.0052 0.0000
vt 0.2545 0.2374 0.0000
vt 0.1464 0.2374 0.0000
vt 0.1275 0.2374 0.0000
vt 0.1192 0.2374 0.0000
vt 0.0141 0.2374 0.0000
vt 0.4101 0.2374 0.0000
vt 0.5152 0.2374 0.0000
vt 0.4018 0.2374 0.0000
vt 0.3829 0.2374 0.0000
vt 0.8315 0.3338 0.0000
vt 0.8315 0.3906 0.0000
vt 0.8052 0.3906 0.0000
vt 0.8052 0.3338 0.0000
vt 0.8767 0.3338 0.0000
vt 0.8767 0.3906 0.0000
vt 0.9080 0.3338 0.0000
vt 0.9080 0.3906 0.0000
vt 0.9344 0.7610 0.0000
vt 0.9344 0.8178 0.0000
vt 0.8982 0.8178 0.0000
vt 0.8982 0.7610 0.0000
vt 0.8089 0.7694 0.0000
vt 0.8089 0.8262 0.0000
vt 0.7766 0.8262 0.0000
vt 0.7766 0.7694 0.0000
vt 0.8538 0.7694 0.0000
vt 0.8538 0.8262 0.0000
vt 0.8803 0.7694 0.0000
vt 0.8803 0.8262 0.0000
vt 0.5126 0.7464 0.0000
vt 0.4558 0.7464 0.0000
vt 0.4558 0.7131 0.0000
vt 0.5126 0.7131 0.0000
vt 0.5126 0.7856 0.0000
vt 0.4558 0.7856 0.0000
vt 0.9734 0.7610 0.0000
vt 0.9734 0.8178 0.0000
vt 0.1548 0.5964 0.0000
vt 0.1192 0.5964 0.0000
vt 0.4101 0.5964 0.0000
vt 0.3745 0.5964 0.0000
vt 0.1548 0.5948 0.0000
vt 0.4018 0.5964 0.0000
vt 0.3829 0.5964 0.0000
vt 0.1464 0.5964 0.0000
vt 0.1275 0.5964 0.0000
vt 0.0870 0.6363 0.0000
vt 0.1059 0.6363 0.0000
vt 0.1059 0.9952 0.0000
vt 0.0870 0.9952 0.0000
vt 0.0144 0.6274 0.0000
vt 0.0144 0.6085 0.0000
vt 0.3734 0.6085 0.0000
vt 0.3734 0.6274 0.0000
vt 0.1666 0.9929 0.0000
vt 0.1702 0.6338 0.0000
vt 0.1797 0.6341 0.0000
vt 0.1761 0.9932 0.0000
vt 0.0445 0.8389 0.0000
vt 0.0445 0.8199 0.0000
vt 0.0539 0.8199 0.0000
vt 0.0539 0.8389 0.0000
vt 0.1559 0.6338 0.0000
vt 0.1470 0.9928 0.0000
vt 0.1375 0.9928 0.0000
vt 0.1464 0.6338 0.0000
vt 0.0439 0.7583 0.0000
vt 0.0629 0.7583 0.0000
vt 0.0629 0.7678 0.0000
vt 0.0439 0.7678 0.0000
vt 0.0101 0.9952 0.0000
vt 0.0052 0.6363 0.0000
vt 0.0147 0.6363 0.0000
vt 0.0196 0.9952 0.0000
vt 0.0539 0.7988 0.0000
vt 0.0539 0.8177 0.0000
vt 0.0445 0.8177 0.0000
vt 0.0445 0.7988 0.0000
vt 0.2122 0.6345 0.0000
vt 0.2073 0.9934 0.0000
vt 0.1979 0.9934 0.0000
vt 0.2027 0.6345 0.0000
vt 0.0629 0.7551 0.0000
vt 0.0439 0.7551 0.0000
vt 0.0439 0.7456 0.0000
vt 0.0629 0.7456 0.0000
vt 0.0431 0.5964 0.0000
vt 0.2290 0.5948 0.0000
vt 0.3003 0.5964 0.0000
vt 0.4862 0.5964 0.0000
vt 0.9692 0.5779 0.0000
vt 0.9752 0.6063 0.0000
vt 0.7098 0.1704 0.0000
vt 0.7170 0.1423 0.0000
vt 0.6961 0.6077 0.0000
vt 0.7037 0.5779 0.0000
vt 0.9808 0.1423 0.0000
vt 0.9889 0.1721 0.0000
vt 0.8291 0.5125 0.0000
vt 0.8297 0.5449 0.0000
vt 0.7995 0.5448 0.0000
vt 0.7978 0.5125 0.0000
vt 0.8315 0.4497 0.0000
vt 0.8315 0.4911 0.0000
vt 0.8052 0.4911 0.0000
vt 0.8052 0.4497 0.0000
vt 0.8332 0.4008 0.0000
vt 0.8332 0.4396 0.0000
vt 0.8104 0.4396 0.0000
vt 0.8104 0.4008 0.0000
vt 0.8052 0.2676 0.0000
vt 0.8315 0.2676 0.0000
vt 0.8104 0.3219 0.0000
vt 0.8104 0.2795 0.0000
vt 0.8332 0.2795 0.0000
vt 0.8332 0.3219 0.0000
vt 0.8792 0.5125 0.0000
vt 0.8786 0.5449 0.0000
vt 0.8767 0.4497 0.0000
vt 0.8767 0.4911 0.0000
vt 0.8750 0.4008 0.0000
vt 0.8750 0.4396 0.0000
vt 0.8767 0.2676 0.0000
vt 0.8750 0.2795 0.0000
vt 0.8750 0.3219 0.0000
vt 0.9160 0.5125 0.0000
vt 0.9142 0.5447 0.0000
vt 0.9080 0.4497 0.0000
vt 0.9080 0.4911 0.0000
vt 0.9024 0.4008 0.0000
vt 0.9024 0.4396 0.0000
vt 0.9080 0.2676 0.0000
vt 0.9024 0.2795 0.0000
vt 0.9024 0.3219 0.0000
vt 0.9341 0.9397 0.0000
vt 0.9342 0.9719 0.0000
vt 0.8926 0.9719 0.0000
vt 0.8909 0.9397 0.0000
vt 0.9344 0.8769 0.0000
vt 0.9344 0.9183 0.0000
vt 0.8982 0.9183 0.0000
vt 0.8982 0.8769 0.0000
vt 0.9345 0.8280 0.0000
vt 0.9345 0.8668 0.0000
vt 0.9033 0.8668 0.0000
vt 0.9033 0.8280 0.0000
vt 0.8982 0.6948 0.0000
vt 0.8982 0.6516 0.0000
vt 0.9344 0.6516 0.0000
vt 0.9344 0.6948 0.0000
vt 0.9033 0.7491 0.0000
vt 0.9033 0.7067 0.0000
vt 0.9345 0.7067 0.0000
vt 0.9345 0.7491 0.0000
vt 0.8069 0.9481 0.0000
vt 0.8074 0.9805 0.0000
vt 0.7704 0.9802 0.0000
vt 0.7687 0.9481 0.0000
vt 0.8089 0.8865 0.0000
vt 0.8089 0.9267 0.0000
vt 0.7766 0.9267 0.0000
vt 0.7766 0.8865 0.0000
vt 0.8104 0.8363 0.0000
vt 0.8104 0.8764 0.0000
vt 0.7820 0.8764 0.0000
vt 0.7820 0.8363 0.0000
vt 0.7766 0.7032 0.0000
vt 0.8089 0.7032 0.0000
vt 0.8571 0.9481 0.0000
vt 0.8563 0.9804 0.0000
vt 0.8538 0.8853 0.0000
vt 0.8538 0.9267 0.0000
vt 0.8515 0.8363 0.0000
vt 0.8515 0.8752 0.0000
vt 0.8538 0.7032 0.0000
vt 0.8104 0.7575 0.0000
vt 0.8104 0.7151 0.0000
vt 0.8515 0.7151 0.0000
vt 0.8515 0.7575 0.0000
vt 0.8881 0.9481 0.0000
vt 0.8861 0.9805 0.0000
vt 0.8803 0.8853 0.0000
vt 0.8803 0.9267 0.0000
vt 0.8748 0.8363 0.0000
vt 0.8748 0.8752 0.0000
vt 0.8803 0.7032 0.0000
vt 0.8748 0.7151 0.0000
vt 0.8748 0.7575 0.0000
vt 0.3334 0.7460 0.0000
vt 0.3018 0.7461 0.0000
vt 0.3015 0.7076 0.0000
vt 0.3334 0.7057 0.0000
vt 0.3967 0.7464 0.0000
vt 0.3548 0.7464 0.0000
vt 0.3548 0.7131 0.0000
vt 0.3967 0.7131 0.0000
vt 0.4456 0.7467 0.0000
vt 0.4068 0.7467 0.0000
vt 0.4068 0.7184 0.0000
vt 0.4456 0.7184 0.0000
vt 0.5788 0.7131 0.0000
vt 0.6220 0.7131 0.0000
vt 0.6220 0.7464 0.0000
vt 0.5788 0.7464 0.0000
vt 0.5244 0.7184 0.0000
vt 0.5669 0.7184 0.0000
vt 0.5669 0.7467 0.0000
vt 0.5244 0.7467 0.0000
vt 0.3339 0.7935 0.0000
vt 0.3016 0.7916 0.0000
vt 0.3967 0.7856 0.0000
vt 0.3553 0.7856 0.0000
vt 0.4456 0.7802 0.0000
vt 0.4068 0.7802 0.0000
vt 0.6220 0.7856 0.0000
vt 0.5788 0.7856 0.0000
vt 0.5669 0.7802 0.0000
vt 0.5244 0.7802 0.0000
vt 0.9809 0.9397 0.0000
vt 0.9792 0.9719 0.0000
vt 0.9734 0.8769 0.0000
vt 0.9734 0.9183 0.0000
vt 0.9682 0.8280 0.0000
vt 0.9682 0.8668 0.0000
vt 0.9734 0.6516 0.0000
vt 0.9734 0.6948 0.0000
vt 0.7122 0.5029 0.0000
vt 0.6797 0.5030 0.0000
vt 0.6812 0.4890 0.0000
vt 0.7098 0.4890 0.0000
vt 0.6628 0.5186 0.0000
vt 0.6952 0.5187 0.0000
vt 0.6929 0.5326 0.0000
vt 0.6642 0.5326 0.0000
vt 0.7718 0.4627 0.0000
vt 0.7721 0.5021 0.0000
vt 0.7595 0.5008 0.0000
vt 0.7598 0.4666 0.0000
vt 0.7654 0.5323 0.0000
vt 0.7537 0.5275 0.0000
vt 0.6628 0.5156 0.0000
vt 0.6628 0.4832 0.0000
vt 0.6754 0.4846 0.0000
vt 0.6753 0.5133 0.0000
vt 0.6715 0.4466 0.0000
vt 0.6824 0.4527 0.0000
vt 0.7109 0.9777 0.0000
vt 0.7022 0.9493 0.0000
vt 0.7403 0.9493 0.0000
vt 0.7358 0.9774 0.0000
vt 0.6862 0.4551 0.0000
vt 0.7135 0.4551 0.0000
vt 0.7187 0.4849 0.0000
vt 0.6797 0.4849 0.0000
vt 0.7830 0.7575 0.0000
vt 0.7830 0.7151 0.0000
vt 0.9678 0.7067 0.0000
vt 0.9678 0.7491 0.0000
# 311 texture coords

o Box001
g Box001
usemtl 07___Default
s 1
f 1/1/1 2/2/2 3/3/3 4/4/4 5/5/5 
f 5/5/5 4/4/4 6/6/6 7/7/7 
f 7/7/7 6/6/6 8/8/8 9/9/9 10/10/10 
s 2
f 11/11/11 12/12/12 13/13/13 13/13/14 13/13/15 11/11/16 
f 12/12/12 14/14/17 15/15/13 15/15/18 16/16/19 17/17/20 13/13/21 13/13/13 
f 14/14/17 18/18/22 18/18/23 15/15/24 15/15/13 15/15/13 
s 1
f 18/19/22 19/20/25 20/21/26 20/21/27 21/22/28 22/23/29 18/19/23 
s 4
f 20/24/26 23/25/30 24/26/13 24/26/13 24/26/31 20/24/27 
f 23/25/30 25/27/32 26/28/13 26/28/33 27/29/34 28/30/35 24/26/36 24/26/13 
f 25/27/32 29/31/37 29/31/38 26/28/39 26/28/40 26/28/13 
s 1
f 29/32/37 30/33/41 11/34/11 11/34/16 31/35/42 32/36/43 29/32/38 
s 8
f 15/37/13 15/37/24 33/38/44 34/39/45 24/40/31 24/40/13 24/40/46 35/41/47 35/41/48 15/37/49 
f 26/42/40 26/42/39 36/43/50 37/44/51 13/45/15 13/45/14 13/45/52 38/46/53 26/42/54 
s 4
f 39/47/55 40/48/56 41/49/57 39/47/13 
s 2
f 40/50/58 42/51/59 42/52/13 41/53/57 40/54/56 
f 42/52/21 43/55/60 44/56/61 45/57/62 45/57/13 41/53/57 42/52/13 
f 45/57/63 46/58/64 41/53/57 45/57/13 
s 4
f 47/59/65 47/59/13 41/49/57 46/60/64 
f 47/59/66 48/61/67 49/62/68 39/47/33 39/47/13 41/49/57 47/59/13 
f 50/63/69 51/64/70 52/65/71 53/66/72 
f 54/67/73 55/68/74 51/64/70 50/63/69 
f 56/69/75 57/70/76 55/68/74 54/67/73 
s 2
f 58/71/77 59/72/78 57/73/76 56/74/75 
f 60/75/79 61/76/80 62/77/81 63/78/82 
f 64/79/83 65/80/84 61/76/80 60/75/79 
s 4
f 66/81/85 67/82/86 65/80/84 64/79/83 
f 68/83/87 69/84/88 67/85/86 66/86/85 
s 2
f 53/87/72 52/88/71 69/84/88 68/83/87 
s 4
f 63/89/82 62/90/81 59/72/78 58/71/77 
s 2
f 13/91/13 13/91/13 13/91/14 
f 15/92/13 15/92/13 15/92/18 
f 13/91/21 13/91/13 13/91/13 
f 15/92/13 15/92/13 15/92/13 
s 4
f 24/93/13 24/93/13 24/93/13 
f 26/94/13 26/94/13 26/94/33 
f 24/93/36 24/93/13 24/93/13 
f 26/94/40 26/94/13 26/94/13 
f 24/93/13 24/93/13 24/93/46 
s 2
f 15/92/49 15/92/13 15/92/13 
f 13/91/14 13/91/13 13/95/52 
s 4
f 26/94/54 26/94/13 26/94/40 
f 39/47/13 39/47/13 39/47/55 
s 2
f 42/51/59 42/52/13 42/52/13 
f 45/57/62 45/57/13 45/57/13 
f 42/52/13 42/52/13 42/52/21 
f 45/57/13 45/57/13 45/57/63 
s 4
f 47/59/65 47/59/13 47/59/13 
f 39/47/33 39/47/13 39/47/13 
f 47/59/13 47/59/13 47/59/66 
f 24/93/36 28/96/35 48/61/67 47/59/66 
f 27/97/34 26/94/33 39/47/33 49/62/68 
s 2
f 13/91/21 17/98/20 43/55/60 42/52/21 
f 16/99/19 15/92/18 45/57/62 44/56/61 
f 70/100/89 71/101/90 72/102/91 73/103/92 
s 4
f 74/104/93 75/105/94 76/106/95 77/107/96 
s off
f 48/108/67 28/109/35 74/110/93 77/111/96 
f 28/112/35 27/113/34 75/114/94 74/115/93 
f 27/116/34 49/117/68 76/118/95 75/119/94 
f 49/120/68 48/121/67 77/122/96 76/123/95 
f 43/124/60 17/125/20 70/126/89 73/127/92 
f 17/128/20 16/129/19 71/130/90 70/131/89 
f 16/132/19 44/133/61 72/134/91 71/135/90 
f 44/136/61 43/137/60 73/138/92 72/139/91 
s 4
f 15/92/49 35/140/48 46/58/64 45/57/63 
f 42/51/59 40/50/58 38/141/53 13/95/52 
s 2
f 26/94/54 38/142/53 40/48/56 39/47/55 
f 47/59/65 46/60/64 35/143/47 24/93/46 
s off
f 11/11/16 13/13/15 37/144/51 31/145/42 
f 29/31/38 32/146/43 36/147/50 26/28/39 
f 18/18/23 22/148/29 33/149/44 15/15/24 
f 20/24/27 24/26/31 34/150/45 21/151/28 
s 4
f 78/152/97 4/153/4 3/154/3 79/155/98 
f 80/156/99 81/157/100 82/158/101 83/159/102 
f 84/160/103 85/161/104 86/162/105 87/163/106 
f 88/164/107 29/31/37 25/27/32 89/165/108 
f 90/166/109 91/167/110 92/168/111 93/169/112 
f 94/170/113 6/171/6 4/153/4 78/152/97 
f 95/172/114 96/173/115 81/157/100 80/156/99 
f 97/174/116 98/175/117 85/161/104 84/160/103 
f 89/165/108 25/27/32 23/25/30 99/176/118 
f 93/169/112 92/168/111 100/177/119 101/178/120 
f 102/179/121 8/180/8 6/171/6 94/170/113 
f 103/181/122 104/182/123 96/173/115 95/172/114 
f 105/183/124 106/184/125 98/175/117 97/174/116 
f 99/176/118 23/25/30 20/24/26 107/185/126 
f 101/178/120 100/177/119 108/186/127 109/187/128 
s 2
f 110/188/129 9/189/9 8/190/8 102/191/121 
f 111/192/130 112/193/131 104/194/123 103/195/122 
f 113/196/132 114/197/133 106/198/125 105/199/124 
f 107/200/126 20/201/26 19/202/25 115/203/134 
f 109/204/128 108/205/127 116/206/135 117/207/136 
f 118/208/137 7/209/7 10/210/10 119/211/138 
f 120/212/139 121/213/140 122/214/141 123/215/142 
f 124/216/143 125/217/144 126/218/145 127/219/146 
f 128/220/147 18/18/22 14/14/17 129/221/148 
f 130/222/149 5/223/5 7/209/7 118/208/137 
f 131/224/150 132/225/151 121/213/140 120/212/139 
f 133/226/152 134/227/153 125/217/144 124/216/143 
f 129/221/148 14/14/17 12/12/12 135/228/154 
f 136/229/155 137/230/156 138/231/157 139/232/158 
s 4
f 140/233/159 1/234/1 5/223/5 130/222/149 
f 141/235/160 142/236/161 132/225/151 131/224/150 
f 143/237/162 144/238/163 134/227/153 133/226/152 
f 135/228/154 12/12/12 11/11/11 145/239/164 
f 139/232/158 138/231/157 146/240/165 147/241/166 
f 148/242/167 2/243/2 1/244/1 140/245/159 
f 149/246/168 150/247/169 142/248/161 141/249/160 
f 151/250/170 152/251/171 144/252/163 143/253/162 
f 145/254/164 11/255/11 30/256/41 153/257/172 
f 147/258/166 146/259/165 154/260/173 155/261/174 
s 2
f 79/262/98 3/263/3 2/243/2 148/242/167 
f 83/264/102 82/265/101 150/247/169 149/246/168 
f 87/266/106 86/267/105 152/251/171 151/250/170 
f 153/257/172 30/256/41 29/268/37 88/269/107 
f 155/261/174 154/260/173 91/270/110 90/271/109 
s 4
f 119/272/138 10/273/10 9/189/9 110/188/129 
f 123/274/142 122/275/141 112/193/131 111/192/130 
f 127/276/146 126/277/145 114/197/133 113/196/132 
f 115/203/134 19/202/25 18/278/22 128/279/147 
s off
f 88/164/107 89/165/108 92/168/111 91/167/110 
f 89/165/108 99/176/118 100/177/119 92/168/111 
f 99/176/118 107/185/126 108/186/127 100/177/119 
f 107/200/126 115/203/134 116/206/135 108/205/127 
f 129/221/148 135/228/154 138/231/157 137/230/156 
f 135/280/154 145/281/164 146/282/165 138/283/157 
f 145/254/164 153/257/172 154/260/173 146/259/165 
f 153/257/172 88/269/107 91/270/110 154/260/173 
f 50/63/69 53/66/72 90/166/109 93/169/112 
f 53/87/72 68/83/87 155/261/174 90/271/109 
f 68/83/87 66/86/85 147/258/166 155/261/174 
f 66/284/85 64/285/83 139/286/158 147/287/166 
f 64/79/83 60/75/79 136/229/155 139/232/158 
f 58/71/77 56/74/75 109/204/128 117/207/136 
f 56/69/75 54/67/73 101/178/120 109/187/128 
f 54/67/73 50/63/69 93/169/112 101/178/120 
f 80/156/99 83/159/102 86/162/105 85/161/104 
f 83/264/102 149/246/168 152/251/171 86/267/105 
f 149/288/168 141/289/160 144/290/163 152/291/171 
f 141/289/160 131/292/150 134/293/153 144/290/163 
f 131/224/150 120/212/139 125/217/144 134/227/153 
f 120/212/139 123/215/142 126/218/145 125/217/144 
f 123/274/142 111/192/130 114/197/133 126/277/145 
f 111/192/130 103/195/122 106/198/125 114/197/133 
f 103/181/122 95/172/114 98/175/117 106/184/125 
f 95/172/114 80/156/99 85/161/104 98/175/117 
f 52/65/71 51/64/70 84/160/103 87/163/106 
f 51/64/70 55/68/74 97/174/116 84/160/103 
f 55/68/74 57/70/76 105/183/124 97/174/116 
f 57/73/76 59/72/78 113/196/132 105/199/124 
f 59/72/78 62/90/81 127/276/146 113/196/132 
f 62/77/81 61/76/80 124/216/143 127/219/146 
f 61/76/80 65/80/84 133/226/152 124/216/143 
f 65/294/84 67/295/86 143/296/162 133/297/152 
f 67/295/86 69/298/88 151/299/170 143/296/162 
f 69/84/88 52/88/71 87/266/106 151/250/170 
f 82/158/101 81/157/100 78/152/97 79/155/98 
f 81/157/100 96/173/115 94/170/113 78/152/97 
f 96/173/115 104/182/123 102/179/121 94/170/113 
f 104/194/123 112/193/131 110/188/129 102/191/121 
f 112/193/131 122/275/141 119/272/138 110/188/129 
f 122/214/141 121/213/140 118/208/137 119/211/138 
f 121/213/140 132/225/151 130/222/149 118/208/137 
f 132/225/151 142/236/161 140/233/159 130/222/149 
f 142/248/161 150/247/169 148/242/167 140/245/159 
f 150/247/169 82/265/101 79/262/98 148/242/167 
f 31/300/42 37/301/51 36/302/50 32/303/43 
f 22/304/29 21/305/28 34/306/45 33/307/44 
s 1
f 137/230/156 136/229/155 156/308/175 157/309/176 
f 157/310/176 156/311/175 117/207/136 116/206/135 
s 8
f 117/207/136 156/311/175 63/89/82 58/71/77 
s 16
f 156/308/175 136/229/155 60/75/79 63/78/82 
s 8
f 157/310/176 116/206/135 115/203/134 128/279/147 
s 16
f 137/230/156 157/309/176 128/220/147 129/221/148 
# 153 polygons - 20 triangles

